HIERARCHY
ROOT Hips
{
  OFFSET -32.5998 29.0326 120.673
  CHANNELS 6 Xposition Yposition Zposition Zrotation Xrotation Yrotation
  JOINT LeftUpLeg
  {
    OFFSET 8.64259 1.95398 -2.38835
    CHANNELS 3 Zrotation Xrotation Yrotation
    JOINT LeftLeg
    {
      OFFSET 43.7702 0 0
      CHANNELS 3 Zrotation Xrotation Yrotation
      JOINT LeftFoot
      {
        OFFSET 40.6238 0 0
        CHANNELS 3 Zrotation Xrotation Yrotation
        JOINT LeftToeBase
        {
          OFFSET 12.7242 0 0
          CHANNELS 3 Zrotation Xrotation Yrotation
          End Site
          {
            OFFSET 0 0 0
          }
        }
      }
    }
  }
  JOINT RightUpLeg
  {
    OFFSET -8.2249 1.95398 -2.59336
    CHANNELS 3 Zrotation Xrotation Yrotation
    JOINT RightLeg
    {
      OFFSET 43.5653 0 0
      CHANNELS 3 Zrotation Xrotation Yrotation
      JOINT RightFoot
      {
        OFFSET 40.6238 0 0
        CHANNELS 3 Zrotation Xrotation Yrotation
        JOINT RightToeBase
        {
          OFFSET 12.7242 0 0
          CHANNELS 3 Zrotation Xrotation Yrotation
          End Site
          {
            OFFSET 0 0 0
          }
        }
      }
    }
  }
  JOINT Spine
  {
    OFFSET 0.165834 0.87714 6.61349
    CHANNELS 3 Zrotation Xrotation Yrotation
    JOINT Spine1
    {
      OFFSET 7.38963 1.71661e-005 0
      CHANNELS 3 Zrotation Xrotation Yrotation
      JOINT Spine2
      {
        OFFSET 11.9445 1.14441e-005 0
        CHANNELS 3 Zrotation Xrotation Yrotation
        JOINT Spine3
        {
          OFFSET 14.7254 4.19617e-005 0
          CHANNELS 3 Zrotation Xrotation Yrotation
          JOINT Spine4
          {
            OFFSET 10.9679 0 0
            CHANNELS 3 Zrotation Xrotation Yrotation
            JOINT RightShoulder
            {
              OFFSET 2.46616 -1.6653 3.69651
              CHANNELS 3 Zrotation Xrotation Yrotation
              JOINT RightArm
              {
                OFFSET 13.0012 0 0
                CHANNELS 3 Zrotation Xrotation Yrotation
                JOINT RightForeArm
                {
                  OFFSET 28.7848 1.62311e-005 0
                  CHANNELS 3 Zrotation Xrotation Yrotation
                  JOINT RightHand
                  {
                    OFFSET 26.5688 1.62095e-005 0
                    CHANNELS 3 Zrotation Xrotation Yrotation
                    End Site
                    {
                      OFFSET 0 0 0
                    }
                  }
                }
              }
            }
            JOINT LeftShoulder
            {
              OFFSET 2.38034 -1.29275 -3.7523
              CHANNELS 3 Zrotation Xrotation Yrotation
              JOINT LeftArm
              {
                OFFSET 16.3182 6.07031e-005 0
                CHANNELS 3 Zrotation Xrotation Yrotation
                JOINT LeftForeArm
                {
                  OFFSET 27.0901 0 0
                  CHANNELS 3 Zrotation Xrotation Yrotation
                  JOINT LeftHand
                  {
                    OFFSET 24.5451 1.51738e-005 0
                    CHANNELS 3 Zrotation Xrotation Yrotation
                    End Site
                    {
                      OFFSET 0 0 0
                    }
                  }
                }
              }
            }
            JOINT Neck
            {
              OFFSET 5.0226 -0.0266342 0
              CHANNELS 3 Zrotation Xrotation Yrotation
              JOINT Head
              {
                OFFSET 6.69364 2.86102e-005 0
                CHANNELS 3 Zrotation Xrotation Yrotation
                End Site
                {
                  OFFSET 0 0 0
                }
              }
            }
          }
        }
      }
    }
  }
}
MOTION
Frames:	10
Frame Time:	0.0416667
16.0569 91.4311 -271.541 79.0922 -40.3466 84.533 -164.485 -4.52078 119.321 -10.3927 63.4742 3.99412 88.3133 14.9198 -4.19481 36.6942 2.07762 3.31109 150.44 16.3571 97.2977 -80.6673 8.98152 15.4471 92.4439 -11.7785 -2.60734 17.5398 1.90182 9.16388 -5.83204 8.56052 -91.9314 9.62034 -12.4979 -2.86498 -1.99144 -12.6117 -2.30372 -24.9043 -11.054 -6.52806 -4.89171 -11.054 -6.52807 96.456 -13.6346 -97.9303 62.5926 -14.094 44.9529 -41.4026 -3.35268 -67.9243 0.116174 -0.0427252 -7.45546 -84.585 -25.6986 82.8252 -1.20186 1.11701 -53.0442 37.0911 -16.236 -98.5168 4.27023 0.493216 5.66296 39.2057 2.79733 -6.88984 -19.4016 6.12699 -0.692675 
16.4591 94.2949 -266.131 74.3363 -46.4097 81.6034 -161.233 -4.11336 118.352 -11.4627 66.1123 4.0197 69.0699 6.52277 5.62432 54.7829 9.9269 -0.894441 152.614 29.6503 95.3217 -74.4896 6.58501 12.7315 92.6425 -12.286 -0.977168 17.4141 2.59221 7.35137 -5.77552 8.2939 -92.1781 10.1326 -12.5002 -3.27635 -1.48 -12.632 -2.71476 -24.3775 -10.9333 -6.91832 -4.36488 -10.9333 -6.91832 95.8375 -12.0786 -100.239 63.3178 -15.8937 50.1944 -39.4503 -0.707281 -68.049 -1.84043 0.00322634 -8.03545 -83.2305 -20.9541 84.6888 -2.68163 -3.44738 -51.35 34.2255 -15.9368 -102.273 3.66805 0.355823 4.09951 40.1773 6.4216 -5.70928 -21.4627 8.90917 -0.0184657 
16.5233 96.0332 -259.812 68.3007 -56.0189 76.6442 -159 -7.0816 116.422 -11.3354 59.1086 3.39595 53.3053 -3.76822 4.96711 45.1452 7.66267 -6.43008 159.084 38.9125 94.5639 -62.5632 2.33774 10.5784 86.6111 -10.5902 -1.38927 19.1778 1.50766 8.51342 -5.26808 8.13003 -92.416 10.4406 -11.6004 -3.77997 -1.18188 -11.7553 -3.2595 -24.0004 -9.92608 -7.11616 -3.98771 -9.92608 -7.11616 94.7907 -9.94423 -104.213 63.3035 -16.3049 53.2538 -37.7502 1.05645 -67.936 1.22291 -0.103629 -9.36609 -83.0077 -20.2827 85.0467 -2.51263 -5.39292 -47.1883 32.8729 -16.1836 -104.97 2.82831 0.308995 4.39796 41.1119 10.7791 -2.15324 -23.4562 11.4161 -0.946827 
16.441 96.1255 -252.758 54.4602 -67.0307 64.273 -160.8 -14.6421 112.227 -9.6728 41.2906 3.3516 48.1807 -5.54633 0.687694 14.4591 -5.93784 -0.59422 166.15 44.6048 96.5069 -48.3511 -4.22892 8.59416 82.0379 -10.4834 -1.35301 19.4336 1.54982 8.09504 -4.21697 8.01863 -92.5645 10.6615 -9.57745 -4.22892 -0.979451 -9.75409 -3.8003 -23.6663 -7.86476 -6.92032 -3.65365 -7.86476 -6.92034 93.8791 -10.7921 -106.378 60.5654 -18.3011 53.108 -34.8281 2.10637 -67.3664 2.50327 -0.181075 -10.7663 -83.4865 -21.3079 84.2005 -0.880618 -4.18125 -44.8383 31.692 -16.5446 -105.595 1.8654 0.24076 4.58863 40.6434 13.163 -1.06121 -23.3731 13.0318 -0.479257 
16.3785 94.7257 -245.671 24.6453 -76.5722 33.8611 -168.05 -18.1347 101.527 -22.9877 26.0888 3.27749 51.4815 -3.24262 3.24827 20.6845 -1.91308 -2.98371 171.299 47.2303 99.2122 -39.7304 -11.4476 6.54753 78.7064 -10.4686 -1.7563 20.5398 1.33509 7.45096 -3.02805 8.09247 -92.3561 10.5564 -7.11292 -4.04607 -1.10032 -7.28395 -3.72815 -23.6901 -5.56979 -5.99759 -3.67746 -5.56978 -5.99758 93.0611 -14.3025 -106.736 53.3816 -19.7023 47.5889 -33.7854 0.0468812 -65.6126 2.32881 -0.190467 -11.414 -84.1953 -25.3415 83.5563 2.22147 -0.434817 -43.5065 33.7951 -18.5599 -105.233 1.70713 0.240672 4.9085 41.4331 14.2392 -1.32302 -23.569 14.0015 0.461271 
16.4491 92.8379 -238.185 -23.8824 -79.4351 -17.1334 -171.335 -13.3071 91.4167 -44.2001 19.9867 0.958649 53.9335 -3.99316 3.38872 24.1692 1.37959 -7.3234 173.966 46.4021 100.755 -39.0862 -11.8004 4.71768 75.8724 -8.87861 -1.23592 23.8756 0.859615 4.63415 -1.9788 8.21545 -91.7675 10.3728 -4.7511 -3.09694 -1.29264 -4.88273 -2.88462 -23.8427 -3.60149 -4.38136 -3.83007 -3.60149 -4.38137 92.3921 -18.8428 -106.196 44.9715 -15.9543 39.3665 -38.342 -5.69181 -65.3457 0.948184 -0.105599 -10.7253 -85.7872 -29.5271 81.3014 4.33187 5.59669 -42.0234 36.7698 -19.7171 -101.72 2.30296 0.250686 3.97424 40.3306 13.7338 -1.46737 -22.1561 13.6235 0.377247 
16.2831 91.4135 -229.929 -53.3151 -78.0159 -47.1796 -168.087 -6.37891 91.5605 -62.0848 16.8262 -1.55829 53.4429 -5.34538 3.1527 26.8868 2.42012 -7.67277 174.954 44.6182 101.811 -44.8901 -13.6321 3.63402 69.9471 -4.7666 -2.71029 18.9576 2.97881 4.19005 -1.14224 8.2627 -91.3565 10.3097 -2.8959 -2.44471 -1.36014 -3.00066 -2.31489 -23.891 -2.0277 -3.20166 -3.87839 -2.0277 -3.20165 92.1457 -23.0043 -105.026 38.9445 -7.88245 31.5225 -42.7823 -9.34838 -67.3468 0.790245 -0.0681317 -8.73444 -87.0793 -32.5623 79.5999 4.91317 14.6536 -41.626 42.1016 -19.3164 -94.6252 0.988382 0.0939622 1.65883 35.2833 11.79 -1.79631 -18.9467 11.7994 1.35268 
15.5789 90.0196 -221.443 -61.8658 -77.7367 -53.6447 -164.104 5.01964 91.6161 -80.3353 9.33238 -0.146758 57.7798 -3.41082 3.86757 28.0672 3.39009 -9.18702 173.852 42.7821 104.772 -54.5197 -13.3599 3.3081 72.8967 -7.0525 -3.16785 18.5636 3.22528 4.15489 -0.704052 8.27827 -91.7107 10.2797 -2.18479 -3.21096 -1.39302 -2.32395 -3.11179 -23.9019 -1.11948 -3.71845 -3.88929 -1.11949 -3.71847 92.7437 -23.0242 -103.643 35.5536 1.12265 22.6343 -41.2967 -9.4761 -68.4734 -0.264731 -0.0332143 -6.61798 -88.2009 -42.405 79.8485 7.21618 22.2548 -40.5132 47.0559 -17.4476 -87.0259 -0.722058 0.00254258 2.55472 30.5966 12.6261 4.01147 -16.0218 10.6214 -1.52364 
14.9935 88.9583 -213.559 -67.8482 -78.0956 -57.1108 -163.89 18.0398 95.6849 -94.7672 5.24767 2.27697 62.025 -0.864418 7.3346 25.2745 2.70769 -9.60753 172.919 37.8501 107.405 -59.5749 -12.9775 3.19867 78.451 -12.0835 -4.96025 21.8078 1.64618 4.87447 -0.360108 8.40507 -91.9489 10.0222 -1.60411 -3.73597 -1.65289 -1.76686 -3.66189 -24.146 -0.408163 -4.04483 -4.13333 -0.408165 -4.04483 92.2955 -25.5812 -103.679 33.5746 9.65566 10.1968 -41.9039 -10.5592 -70.2262 -1.84501 -0.0474633 -3.2276 -89.3253 -48.8726 79.5052 2.48777 25.076 -31.3542 48.3654 -15.9489 -85.5071 -0.704976 0.0163845 2.96491 29.1668 12.4669 5.50996 -15.7465 10.0174 -2.19352 
14.3991 88.3614 -205.451 -74.8342 -78.4221 -63.2055 -167.375 30.5285 96.8236 -102.209 2.31287 3.71248 68.3189 3.17934 5.31742 18.376 1.08185 -10.7135 173.418 30.7103 107.433 -61.5667 -11.4695 2.80442 84.0937 -16.5304 -4.5662 23.9883 0.952487 4.17874 -0.0702411 8.44878 -91.9123 9.94419 -1.00844 -3.71096 -1.73152 -1.17067 -3.6631 -24.2241 0.152568 -3.84234 -4.21145 0.152581 -3.84233 91.8773 -27.0687 -104.027 36.356 14.102 -2.27164 -36.4634 -7.89206 -71.9844 -5.66221 -0.269966 -2.29011 -89.0215 -50.9973 80.3899 -9.87989 23.2368 -12.6474 47.9844 -18.0607 -90.9085 0.0218825 0.0153149 0.452103 28.2426 11.2975 5.03564 -15.8974 9.04609 -1.3698 
